<?xml version="1.0" standalone="yes"?>
<svg xmlns="http://www.w3.org/2000/svg" width="973" height="334">
<path style="fill:#fbfdfd; stroke:none;" d="M0 0L0 334L973 334L973 0L0 0z"/>
<path style="fill:#558ab8; stroke:none;" d="M63 15.4391C40.5437 18.9755 45 43.9256 45 61L45 205L45 248C44.9987 251.47 42.9501 260.79 47.2816 262.292C52.4646 264.089 62.0536 254.696 66 251.999C85.3038 238.806 99.99 219.876 117.09 204.131C127.13 194.886 144.075 187.345 152.005 176.674C155.496 171.977 155.32 165.418 156.935 160C159.126 152.654 163.554 144.561 167.757 138.17C196.086 95.0875 246.75 75.2599 297 86.5139C342.508 96.7058 381.648 141.46 384.91 188C385.962 203.007 382.935 216.588 379.698 231C378.905 234.534 376.108 237.333 375.722 240.985C374.962 248.192 387.404 257.29 391.914 261.981C393.45 263.578 395.948 267.078 398.606 266.248C402.441 265.051 401 255.969 401 253L401 211L401 69C401 55.7814 406.254 28.457 394.71 19.3295C387.553 13.6711 376.526 15 368 15L309 15L145 15C118.568 15 89.0958 11.3295 63 15.4391z"/>
<path style="fill:#0657aa; stroke:none;" d="M48 261C67.8785 255.372 85.1836 232.979 99.4282 219.08C110.033 208.733 120.364 198.52 132 189.285C137.345 185.043 145.058 181.854 149.436 176.624C153.419 171.866 153.373 163.665 155.608 158C159.414 148.35 164.963 138.294 171.439 130.196C206.986 85.7462 269.611 64.9264 321.996 93.9738C337.338 102.481 350.294 113.361 361.482 126.961C379.96 149.421 386 175.822 386 204C386 214.378 383.107 223.062 380.586 233C379.819 236.021 377.447 238.757 377.793 242C378.533 248.935 392.96 262.89 399 266C402.957 249.184 399 226.509 399 209L399 83L399 41C399.01 34.4519 400.571 28.4024 395.775 23.0548C390.249 16.8911 382.514 18 375 18L327 18L126 18L73 18C64.807 18 56.354 16.5025 50.4336 23.429C46.5943 27.9208 48 35.4972 48 41L48 83L48 204C48 221.892 44.6033 243.594 48 261z"/>
<path style="fill:#e7a42f; stroke:none;" d="M400 29L401 30L400 29z"/>
<path style="fill:#558ab8; stroke:none;" d="M486 86L486 87L493 87L486 86M518 90L519 90L526 89C522.867 85.8502 520.182 86.0582 518 90M548.667 86.3333L549.333 86.6667L548.667 86.3333M567.667 86.3333L568.333 86.6667L567.667 86.3333M590 114L570 87C575.152 95.5191 582.206 111.189 591 116C591 109.242 587.267 87.1572 597 88C587.327 81.0829 590 109.069 590 114M742 89L750 89C747.074 86.0569 744.926 86.0569 742 89M764.667 86.3333L765.333 86.6667L764.667 86.3333M787 114L786 114L786 112L785 112L788 116L788 104C788 101.791 787.346 84.2147 793.412 88.8904C796.086 90.9516 795 97.0803 795 100C795 108.298 798.539 125.693 790 130C796.908 131.871 796 122.374 796 118C796.001 110.133 798.663 96.42 795.397 89.2292C793.876 85.882 789.938 86.2285 788.179 89.152C786.084 92.6343 787 98.1133 787 102L787 114M820 86L820 87L827 87L820 86M900 86L900 87L907 87L900 86M939 86L939 87L947 87L939 86z"/>
<path style="fill:#e7a42f; stroke:none;" d="M300 87L301 88L300 87z"/>
<path style="fill:#558ab8; stroke:none;" d="M424 87L424 88C429.876 88.0207 433.703 88.6493 435 95C437.552 87.5434 429.236 87.004 424 87M451 87L451 88L462 90C459.418 86.3455 455.137 87.0027 451 87M482.667 87.3333L483.333 87.6667L482.667 87.3333z"/>
<path style="fill:#0657aa; stroke:none;" d="M484 87.4792C458.563 92.7315 468.178 135.669 495 129.471C521.079 123.444 511.137 81.8758 484 87.4792z"/>
<path style="fill:#558ab8; stroke:none;" d="M496.667 87.3333L497.333 87.6667L496.667 87.3333z"/>
<path style="fill:#0657aa; stroke:none;" d="M520.429 88.0864C516.182 90.5646 518 100.902 518 105C518 120.437 527.149 138.617 545.96 127.86C555.907 122.172 553.004 107.567 553 98C552.999 95.0477 553.656 86.2525 548.209 87.7516C544.297 88.8282 545.005 94.9799 545 98C544.986 106.104 547.923 124.383 535.001 123.717C522.711 123.083 526.055 104.124 525.999 96C525.98 93.2117 525.419 85.175 520.429 88.0864z"/>
<path style="fill:#558ab8; stroke:none;" d="M546 87L547 88L546 87M551 87L552 88L551 87M563 90L566 87L563 90z"/>
<path style="fill:#0657aa; stroke:none;" d="M571 101L572 101C574.159 105.62 576.931 109.829 579.856 114C581.918 116.939 583.708 120.046 585.746 122.996C588.092 126.392 595.456 133.763 597.682 125.891C600.172 117.088 599.432 100.129 597.852 91.1088C596.308 82.2953 591.009 91.4292 591 96L591 104L591 116C584.448 110.585 580.659 101.942 575.88 95C574.063 92.3604 571.761 87.6358 568.004 87.6358C564.064 87.6358 563.152 91.9279 563.019 95C562.655 103.395 560.182 119.161 563.603 126.847C566.922 134.303 570.975 124.472 570.999 120.999L571 113L571 101z"/>
<path style="fill:#558ab8; stroke:none;" d="M617 95C617 103.589 612.563 128.772 623 131L623 130C611.595 124.248 622.034 105.742 617.397 96.3179C615.745 92.9623 610.953 94.5004 608.078 93.2585C606.412 92.5388 604.464 90.5923 606.466 89.0123C610.286 85.9976 631.435 86.5204 635.793 88.6026C639.825 90.5285 635.413 93.4561 632.995 93.8526C630.23 94.306 627.719 94.1963 625 95C628.391 95.5293 634.721 95.8362 637.677 93.821C642.074 90.8239 637.349 87.3562 633.995 87.0586C626.853 86.4248 612.729 84.6969 606.152 87.6034C595.946 92.1137 614.265 95 617 95M662 87L662 88L682 88L662 87M699 91L700 91C705.379 85.5075 717.734 88 725 88C719.545 85.7111 701.257 84.5814 699 91z"/>
<path style="fill:#0657aa; stroke:none;" d="M744.313 88.0864C741.421 89.7211 742.006 94.2339 742 97C741.982 105.89 741.273 115.141 742.059 123.995C742.306 126.781 744.133 130.922 747.687 128.914C750.579 127.279 749.994 122.766 750 120C750.018 111.11 750.727 101.859 749.941 93.0046C749.694 90.2189 747.867 86.0776 744.313 88.0864z"/>
<path style="fill:#558ab8; stroke:none;" d="M762 87L760 91L761 91L762 87z"/>
<path style="fill:#0657aa; stroke:none;" d="M768 101L769 101C771.093 105.208 773.924 109.015 776.424 113C778.331 116.038 780.323 119.025 782.333 121.996C784.388 125.032 791.235 134.037 794.397 126.851C797.763 119.198 796.296 99.3593 794.852 91.1088C793.282 82.1452 788.022 92.9194 788.001 97L788 104L788 116C781.992 110.223 777.522 102.023 773.053 95C771.376 92.3633 769.498 87.8498 765.922 87.466C762.136 87.0597 760.458 90.9016 760.109 94.0008C759.204 102.042 757.256 119.401 760.603 126.771C764.093 134.455 767.974 124.634 767.999 121L768 113L768 101z"/>
<path style="fill:#558ab8; stroke:none;" d="M816 87L816 88L819 88L816 87z"/>
<path style="fill:#0657aa; stroke:none;" d="M819 87.4792C791.874 93.0764 804.392 140.786 831.829 128.387C835.332 126.804 843.748 118.87 839.36 114.662C836.01 111.448 833.007 117.909 831.367 119.787C826.894 124.907 819.414 124.888 815.133 119.521C808.779 111.554 811.582 91.1009 824.996 93.3627C829.485 94.1195 834.418 103.569 838.566 101.534C842.552 99.5786 838.772 94.0913 836.867 92.1883C832.114 87.4409 825.446 86.149 819 87.4792z"/>
<path style="fill:#558ab8; stroke:none;" d="M829.667 87.3333L830.333 87.6667L829.667 87.3333M849 90L880 88C873.443 85.2487 854.056 84.8374 849 90M896.667 87.3333L897.333 87.6667L896.667 87.3333z"/>
<path style="fill:#0657aa; stroke:none;" d="M898 87.483C889.127 89.4213 884.491 100.006 892.189 106.362C896.799 110.168 902.88 109.808 907.891 112.569C910.225 113.855 912.05 116.181 911.288 118.985C907.079 134.47 892.774 113.273 888.742 116.086C885.237 118.532 889.062 123.876 891.109 125.772C895.73 130.054 903.083 130.754 909 129.316C911.571 128.691 913.88 127.616 915.811 125.772C926.535 115.533 915.037 106.485 905 103.637C901.85 102.743 895.825 101.478 896.315 97.0116C896.698 93.5218 900.997 92.0795 903.996 92.4383C908.544 92.9823 910.839 100.069 914.877 99.534C920.359 98.8068 916.045 91.5712 913.811 89.8542C909.569 86.5947 903.056 86.3786 898 87.483z"/>
<path style="fill:#558ab8; stroke:none;" d="M909.667 87.3333L910.333 87.6667L909.667 87.3333M935.667 87.3333L936.333 87.6667L935.667 87.3333z"/>
<path style="fill:#0657aa; stroke:none;" d="M937.001 87.5579C929.118 89.633 923.556 99.1889 930.569 105.637C935.179 109.876 941.594 109.988 946.955 112.649C949.383 113.854 951.514 116.022 950.878 118.96C947.604 134.094 931.713 113.902 928.592 116.086C924.765 118.764 929.307 124.998 931.764 126.812C936.919 130.618 945.148 130.67 950.999 128.656C958.774 125.98 962.8 115.684 956.606 109.39C952.726 105.449 946.998 104.714 942.001 103.072C939.396 102.215 935.472 100.444 935.921 97.0394C936.382 93.5504 941.028 92.0661 943.996 92.6667C948.084 93.4938 950.133 99.3664 954.042 99.3642C959.72 99.361 955.95 92.1627 953.867 90.3032C949.704 86.5883 942.204 86.1882 937.001 87.5579z"/>
<path style="fill:#558ab8; stroke:none;" d="M948.667 87.3333L949.333 87.6667L948.667 87.3333M422 88L421 92L422 92L422 88z"/>
<path style="fill:#0657aa; stroke:none;" d="M429 98L430 98C430.792 103.884 434.534 129.364 441.964 129.364C445.235 129.364 446.494 125.547 447.25 122.999C449.622 115.003 451.888 106.261 453 98L454 98C454 105.996 453.854 114.006 454.005 122C454.053 124.553 454.014 128.42 457.129 129.248C461.48 130.406 461.942 124.838 461.995 122C462.165 113.005 464.065 100.735 461.682 92.0586C460.346 87.1926 452.155 86.4516 449.279 90.3179C444.869 96.2444 443.653 108.789 442 116C440.252 111.433 439.116 106.668 437.659 102C436.531 98.3861 436.056 92.3372 433.272 89.6034C428.3 84.7205 421.595 89.3008 421.094 95.0008C420.484 101.944 417.886 121.741 422.028 127.412C428.964 136.91 429 113.416 429 111L429 98z"/>
<path style="fill:#558ab8; stroke:none;" d="M449 88L448 91L449 88M479 88L480 89L479 88M499 88L500 89L499 88M545.333 88.6667L545.667 89.3333L545.333 88.6667M552 88L553 89L552 88z"/>
<path style="fill:#0657aa; stroke:none;" d="M625 95C627.37 94.4359 629.573 94.1641 632.001 93.9954C634.149 93.846 641.673 91.1705 636.663 88.6026C631.045 85.7235 619.262 87.9871 613 88C610.875 88.0044 606.511 87.3553 605.176 89.5594C602.573 93.8569 616.005 93.9614 617.397 97.1481C620.873 105.111 613.152 122.068 619.589 128.378C623.038 131.759 625.706 126.986 625.945 123.96C626.639 115.196 627.489 103.42 625 95z"/>
<path style="fill:#558ab8; stroke:none;" d="M660 88C657.615 98.0167 656.686 115.956 659.318 125.981C660.571 130.755 664.263 130.679 668 129L668 128C660.254 130.247 660.003 124.219 660 118C659.996 108.811 662.108 96.7777 660 88z"/>
<path style="fill:#0657aa; stroke:none;" d="M668 113C673.2 113 679.171 113.762 683.996 111.427C692.138 107.488 693.894 94.9751 685.956 89.7423C681.091 86.535 669.717 87.166 664.109 88.1481C656.656 89.4533 659.997 113.001 660 119C660.001 121.894 659.183 127.2 662.313 128.863C669.549 132.709 667.924 116.251 668 113z"/>
<path style="fill:#558ab8; stroke:none;" d="M684.667 88.3333L685.333 88.6667L684.667 88.3333z"/>
<path style="fill:#0657aa; stroke:none;" d="M707 111C718.868 111.979 723.879 132.555 734 128L723 110C731.957 107.332 737.157 96.1012 727.895 89.7423C723.45 86.6907 716.117 87.9997 711 88C707.658 88.0002 702.347 87.0688 700.179 90.3179C697.017 95.0565 699 105.502 699 111C699 115.091 696.939 126.965 701.568 129.083C708.94 132.457 707 114.379 707 111z"/>
<path style="fill:#558ab8; stroke:none;" d="M726.667 88.3333L727.333 88.6667L726.667 88.3333M769.333 88.6667L769.667 89.3333L769.333 88.6667M814 88L815 89L814 88M832 88L833 89L832 88z"/>
<path style="fill:#0657aa; stroke:none;" d="M857 123C857 119.149 855.777 112.512 860.148 110.603C862.642 109.515 877.971 111.661 877.079 107.17C876.256 103.027 864.083 105.513 861.059 104.682C856.254 103.363 857.003 97.9471 857 94L880 93L880 88C872.919 88 857.286 85.0451 851.318 89.0278C845.834 92.6871 848.987 112.936 849 119C849.006 121.946 848.484 126.081 851.318 127.972C855.4 130.696 874.288 130.604 878.667 128.397C884.707 125.353 875.18 123.016 872.999 123.001L867 123L857 123z"/>
<path style="fill:#558ab8; stroke:none;" d="M893 88L894 89L893 88M912 88L915 90L912 88M931 90L934 88L931 90M952 88L953 89L952 88M477.667 89.3333L478.333 89.6667L477.667 89.3333M500.667 89.3333L501.333 89.6667L500.667 89.3333M686 89L690 93L686 89M728 89L729 90L728 89M812.667 89.3333L813.333 89.6667L812.667 89.3333M833.667 89.3333L834.333 89.6667L833.667 89.3333M880 89L880 92L881 92L880 89M889 93L893 89L889 93M953 89L956 92L953 89M476 90L477 91L476 90M502 90L506 94L502 90M526 90L526 117L527 117L526 90M553 90L553 116L554 116L553 90M729 90L731 92L731 90L729 90M750 90L750 128L751 128C751 117.089 754.211 100.036 750 90M770 90L771 91L770 90M811 90L812 91L811 90M835 90L836 91L835 90M915 90L916 91L915 90M930 90L931 91L930 90M475 91L476 92L475 91M598 91L598 125L599 125L598 91M771.333 91.6667L771.667 92.3333L771.333 91.6667M808 93L811 91L808 93M836 91L839 94L836 91M916 91L918 94L916 91M929 91L928 93L930 93L929 91M474 92L475 93L474 92M731.333 92.6667L731.667 93.3333L731.333 92.6667z"/>
<path style="fill:#e7a42f; stroke:none;" d="M880 92L881 93L880 92z"/>
<path style="fill:#558ab8; stroke:none;" d="M900 92L900 93L906 93L900 92M940 92L940 93L945 93L940 92M956 92L957 93L956 92M447.333 93.6667L447.667 94.3333L447.333 93.6667M473 93L472 95L474 95L473 93M480 98C488.285 93.6645 495.05 92.5451 500 102C501.492 90.8067 484.939 91.9259 480 98M668 95L677 94C673.911 92.7041 670.307 92.3594 668 95M690.333 93.6667L690.667 94.3333L690.333 93.6667M707 93L707 106L718 106L718 105L708 105L708 94L724 96C719.277 91.9263 712.896 93 707 93M772 93L774 96L772 93M818 94L818 95L827 94L818 94M876 93L876 94L880 94L876 93M888.333 93.6667L888.667 94.3333L888.333 93.6667M896 96L900 94L896 96M906 93L906 94L910 96L906 93M936 95L939 93L936 95M946 93L950 97L946 93M957 93L957 96L958 96L957 93z"/>
<path style="fill:#fbfdfd; stroke:none;" d="M486.004 94.6528C472.104 99.0488 477.025 127.041 492.985 122.427C507.088 118.349 502.541 89.4225 486.004 94.6528z"/>
<path style="fill:#558ab8; stroke:none;" d="M506 94L507 95L506 94z"/>
<path style="fill:#fbfdfd; stroke:none;" d="M669.603 95.0278C662.237 100.861 673.907 110.435 680.482 104.397C687.407 98.0378 675.29 90.5246 669.603 95.0278z"/>
<path style="fill:#558ab8; stroke:none;" d="M679 94L680 95L679 94z"/>
<path style="fill:#fbfdfd; stroke:none;" d="M708 94L708 105C711.939 105 717.109 105.817 720.772 104.106C724.138 102.534 724.916 97.6194 721.682 95.4568C718.043 93.0234 712.154 94 708 94z"/>
<path style="fill:#558ab8; stroke:none;" d="M732.333 94.6667L732.667 95.3333L732.333 94.6667M807 94L808 95L807 94M827 94L827 95L831 96L831 95L827 94M839 94L840 95L839 94M857 94L857 104L858 104L857 94M918 94L917 100L918 100L918 94M927.333 94.6667L927.667 95.3333L927.333 94.6667z"/>
<path style="fill:#e7a42f; stroke:none;" d="M168 172C195.994 166.803 223.283 197.149 242.715 214.113C249.703 220.214 259.607 229.872 269 231.721C274.821 232.867 279.6 229.938 285 228.549C296.958 225.475 308.878 219.754 321 217.468C330.105 215.75 341.913 215.949 350 220.616C353.36 222.555 361.678 231.105 365.585 228.914C370.234 226.306 370.706 213.718 371.025 209C372.377 188.958 370.13 170.19 360.988 152C334.71 99.713 272.332 82.2209 221 105.662C201.068 114.764 184.598 131.453 174.753 151.001C171.667 157.128 166.631 164.99 168 172z"/>
<path style="fill:#558ab8; stroke:none;" d="M507 95L508 96L507 95M681 95L682 96L681 95M806 95L807 96L806 95M816.667 95.3333L817.333 95.6667L816.667 95.3333M935 95L936 96L935 95M436 96L436 99L437 99L436 96M446 96L446 100L447 100L446 96M471.333 96.6667L471.667 97.3333L471.333 96.6667M682 96L682 99L683 99L682 96M691 96L691 104L692 104L691 96M733 96L733 101L734 101L733 96M774 96L776 99L774 96M805 96L805 99L806 99L805 96M815 96L814 99L815 96z"/>
<path style="fill:#e7a42f; stroke:none;" d="M830 96L831 97L830 96z"/>
<path style="fill:#558ab8; stroke:none;" d="M840.333 96.6667L840.667 97.3333L840.333 96.6667M887 96L887 100L888 100L887 96M895.333 96.6667L895.667 97.3333L895.333 96.6667M910.333 96.6667L910.667 97.3333L910.333 96.6667M508.333 97.6667L508.667 98.3333L508.333 97.6667M724 97L724 102L725 102L724 97M831 97L832 98L831 97M935 97L935 100L936 100L935 97M950.333 97.6667L950.667 98.3333L950.333 97.6667M429 98L430 103L431 103L429 98M453.333 98.6667L453.667 99.3333L453.333 98.6667M470 98L470 101L471 101L470 98M832 98L833 99L832 98M911 98L912 99L911 98M957 98L952 100L952 101C954.326 100.872 958.047 100.815 957 98M437 99L437 102L438 102L437 99M479 99L480 100L479 99M509 99L509 102L510 102L509 99M776 99L778 102L776 99M804 99L804 102L805 102L804 99M813.333 99.6667L813.667 100.333L813.333 99.6667M833.333 99.6667L833.667 100.333L833.333 99.6667M951 99L952 100L951 99M445 100L445 103L446 103L445 100M478 100L478 104L479 104L478 100M683 100L684 101L683 100M840 100L841 101L840 100M896.667 100.333L897.333 100.667L896.667 100.333M912 100L912 101L917 101L912 100M927.333 100.667L927.667 101.333L927.333 100.667M936 100L937 101L936 100z"/>
<path style="fill:#e7a42f; stroke:none;" d="M956 100L957 101L956 100z"/>
<path style="fill:#558ab8; stroke:none;" d="M452 101L452 104L453 104L452 101M469 101L469 104L470 104L469 101M571 101L573 104L571 101M682 101L682 104L683 104L682 101M768 101L770 104L768 101M812 101L812 104L813 104L812 101M834 101L834 103L836 103L834 101M898.667 101.333L899.333 101.667L898.667 101.333M937.667 101.333L938.333 101.667L937.667 101.333M723.333 102.667L723.667 103.333L723.333 102.667M732.333 102.667L732.667 103.333L732.333 102.667M778.333 102.667L778.667 103.333L778.333 102.667M837 102L837 103L840 103L837 102M888 102L891 106L888 102M900.667 102.333L901.333 102.667L900.667 102.333M939 102L939 103L942 103L939 102z"/>
<path style="fill:#e7a42f; stroke:none;" d="M334 103L335 104L334 103z"/>
<path style="fill:#558ab8; stroke:none;" d="M501 103L501 114L502 114L501 103M803 103L803 114L804 114L803 103M904.667 103.333L905.333 103.667L904.667 103.333M943.667 103.333L944.333 103.667L943.667 103.333M438 104L439 105L438 104M444 104L444 107L445 107L444 104M477 104L477 112L478 112L477 104M510 104L510 112L511 112L510 104M573 104L575 107L573 104M681 104L682 105L681 104M720.667 104.333L721.333 104.667L720.667 104.333M731.333 104.667L731.667 105.333L731.333 104.667M770 104L771 105L770 104M779 104L780 105L779 104M858 104L858 105C861.162 105 875.485 103.172 876.369 107.17C877.309 111.423 860.565 110 858 110C861.045 111.278 883.142 112.558 877.953 105.599C875.151 101.841 862.295 104 858 104M908.667 104.333L909.333 104.667L908.667 104.333M928 104L930 106L930 104L928 104M947.667 104.333L948.333 104.667L947.667 104.333M431.333 105.667L431.667 106.333L431.333 105.667M451 105L451 109L452 109L451 105M668 105L678 107L678 106L668 105M680 105L681 106L680 105M690.333 105.667L690.667 106.333L690.333 105.667M771 105L773 108L771 105M780 105L782 108L780 105M910 105L910 106L913 106L910 105M950.667 105.333L951.333 105.667L950.667 105.333M730 106L731 107L730 106M891 106L892 107L891 106M913.667 106.333L914.333 106.667L913.667 106.333M930 106L933 108L930 106M952.667 106.333L953.333 106.667L952.667 106.333M439.333 107.667L439.667 108.333L439.333 107.667M575 107L576 108L575 107M689 107L686 111L689 107M729 107L730 108L729 107M892 107L892 108L896 109L896 108L892 107M915 107L916 108L915 107M954.667 107.333L955.333 107.667L954.667 107.333M443 108L443 111L444 111L443 108M727.667 108.333L728.333 108.667L727.667 108.333M773 108L775 111L773 108M782 108L784 111L782 108M916 108L918 110L918 108L916 108M933.667 108.333L934.333 108.667L933.667 108.333M956 108L957 109L956 108z"/>
<path style="fill:#e7a42f; stroke:none;" d="M342 109L343 110L342 109z"/>
<path style="fill:#558ab8; stroke:none;" d="M432.333 109.667L432.667 110.333L432.333 109.667M450 109L450 112L451 112L450 109M576 109L577 110L576 109M725.667 109.333L726.333 109.667L725.667 109.333M896.667 109.333L897.333 109.667L896.667 109.333M935 109L935 110L938 110L935 109M957 109L958 110L957 109M440.333 110.667L440.667 111.333L440.333 110.667M577.333 110.667L577.667 111.333L577.333 110.667M723 110L725 112L725 110L723 110M899 110L899 111L902 111L899 110M918 110L919 111L918 110M938 110L938 111L941 111L938 110M958.333 110.667L958.667 111.333L958.333 110.667M684.667 111.333L685.333 111.667L684.667 111.333M707 111L707 128L708 128L708 112L712 112L707 111M775 111L776 112L775 111M857 111C857 114.995 855.274 121.987 860 123L860 122L857 111M904.667 111.333L905.333 111.667L904.667 111.333M919 111L920 112L919 111M942.667 111.333L943.333 111.667L942.667 111.333M433 112L433 115L434 115L433 112M442.333 112.667L442.667 113.333L442.333 112.667M469 112L469 116L470 116L469 112M578 112L579 113L578 112M681.667 112.333L682.333 112.667L681.667 112.333M714 112L717 114L714 112M725 112L726 113L725 112M812 112L812 115L813 115L812 112M834 115L839 113L834 115M907 112L907 113L911 115L907 112M946.667 112.333L947.333 112.667L946.667 112.333M959.333 112.667L959.667 113.333L959.333 112.667M449 113L449 116L450 116L449 113M478 113L478 116L479 116L478 113M579 113L581 116L579 113M668.333 113.667L668.667 114.333L668.333 113.667M726 113L727 114L726 113M776 113L777 114L776 113M839 113L840 114L839 113M948.667 113.333L949.333 113.667L948.667 113.333M441.333 114.667L441.667 115.333L441.333 114.667M544 114L544 118L545 118L544 114M717 114L718 115L717 114M727 114L728 115L727 114M777.333 114.667L777.667 115.333L777.333 114.667M840 114L841 115L840 114M888 114L888 115L894 119C894.844 114.986 891.402 114.259 888 114M920 114L920 119L921 119L920 114M928 114L928 115L932 115L928 114M950 114L951 115L950 114M434 115L434 119L435 119L434 115M500.333 115.667L500.667 116.333L500.333 115.667M509.333 115.667L509.667 116.333L509.333 115.667M718.333 115.667L718.667 116.333L718.333 115.667M728.333 115.667L728.667 116.333L728.333 115.667M804 115L804 118L805 118L804 115M833.333 115.667L833.667 116.333L833.333 115.667M887.333 115.667L887.667 116.333L887.333 115.667M911 115L912 116L911 115M926 115L926 121L927 121L928 115L926 115M932 115L933 116L932 115M470 116L470 119L471 119L470 116M479.333 116.667L479.667 117.333L479.333 116.667M581 116L583 119L581 116M778 116L779 117L778 116M813.333 116.667L813.667 117.333L813.333 116.667M933 116L934 120L935 120L933 116M951 116L951 119L952 119L951 116M448 117L448 120L449 120L448 117M499 117L498 120L499 117M508 117L508 120L509 120L508 117M518 117L518 120L519 120L518 117M719 117L720 118L719 117M729 117L730 118L729 117M779.333 117.667L779.667 118.333L779.333 117.667M832.333 117.667L832.667 118.333L832.333 117.667M480.333 118.667L480.667 119.333L480.333 118.667M527.333 118.667L527.667 119.333L527.333 118.667M667 118L668 119L667 118M720.333 118.667L720.667 119.333L720.333 118.667M730.333 118.667L730.667 119.333L730.333 118.667M805.333 118.667L805.667 119.333L805.333 118.667M814.333 118.667L814.667 119.333L814.333 118.667M840.333 118.667L840.667 119.333L840.333 118.667M543 119L544 120L543 119M583 119L584 120L583 119M780 119L781 120L780 119M831 119L829 122L831 119M895 119L896 120L895 119M911 119L910 122L911 119M435 120L435 123L436 123L435 120M481 120L484 122L481 120M497 120L498 121L497 120M507.333 120.667L507.667 121.333L507.333 120.667M528 120L531 123L528 120M542 120L540 123L542 120M552 120L553 121L552 120M721.333 120.667L721.667 121.333L721.333 120.667M731.333 120.667L731.667 121.333L731.333 120.667M781.333 120.667L781.667 121.333L781.333 120.667M806.333 120.667L806.667 121.333L806.333 120.667M935 120L936 121L935 120M950 120L948 123L950 120M959 120L958 124L959 124L959 120M472 121L474 124L472 121M496 121L497 122L496 121M519.333 121.667L519.667 122.333L519.333 121.667M584 121L585 122L584 121M816 121L819 123L816 121M839 121L838 124L839 121M887 121L888 122L887 121M896 121L901 124L901 123L896 121M919 121L918 124L919 121M927.333 121.667L927.667 122.333L927.333 121.667M447.333 122.667L447.667 123.333L447.333 122.667M484.667 122.333L485.333 122.667L484.667 122.333M493 122L493 123L496 123L493 122M506 122L507 123L506 122M551 122L550 125L551 122M585.333 122.667L585.667 123.333L585.333 122.667M722 122L723 123L722 122M732 122L733 126L734 126L732 122M782 122L783 123L782 122M807 122L808 123L807 122M827.667 122.333L828.333 122.667L827.667 122.333M905 123L905 124L910 123L905 123M936.667 122.333L937.333 122.667L936.667 122.333M486 123L486 124L493 124L486 123M505 123L506 124L505 123M520 123L522 126L520 123M532 123L532 124L539 124L532 123M723.333 123.667L723.667 124.333L723.333 123.667M783.333 123.667L783.667 124.333L783.333 123.667M820 123L820 124L827 124L820 123M880.333 123.667L880.667 124.333L880.333 123.667M888 123L889 124L888 123M938 123L938 124L941 124L938 123M944 123L944 124L948 124L944 123M436.333 124.667L436.667 125.333L436.333 124.667M474 124L475 125L474 124M504 124L505 125L504 124M586 124L587 125L586 124M808 124L810 126L810 124L808 124M837 124L838 125L837 124M889 124L892 127L889 124M904 124L905 125L904 124M917 124L914 128L917 124M928 124L930 126L930 124L928 124M957 124L958 125L957 124M446 125L446 128L447 128L446 125M475 125L476 126L475 125M503 125L504 126L503 125M549 125L550 126L549 125M587 125L589 128L587 125M724 125L726 128L724 125M784 125L786 128L784 125M836 125L837 126L836 125M881 125L881 128L882 128L881 125M956 125L957 126L956 125M476 126L479 128L476 126M502 126L503 127L502 126M522 126L524 128L524 126L522 126M548 126L549 127L548 126M810 126L813 128L810 126M834 126L834 128L836 126L834 126M930 126L932 128L932 126L930 126M955 126L956 127L955 126M437 127L440 130L437 127M500.667 127.333L501.333 127.667L500.667 127.333M547 127L548 128L547 127M849 127L850 128L849 127M892 127L893 128L892 127M954 127L955 128L954 127M421 128L424 130L421 128M428 128L429 129L428 128M445 128L446 129L445 128M454 128L455 129L454 128M461 128L462 129L461 128M480 128L481 129L480 128M498.667 128.333L499.333 128.667L498.667 128.333M525.667 128.333L526.333 128.667L525.667 128.333M545 128L546 129L545 128M563 128L564 129L563 128M568 130L571 128L568 130M589 128L590 129L589 128M597 128L598 129L597 128M624.333 128.667L624.667 129.333L624.333 128.667M699 128L701 130L701 128L699 128M706 128L705 130L706 128M726 128L727 129L726 128M733 128L734 129L733 128M742 128L743 129L742 128M749 128L748 130L750 130L749 128M760 128L761 129L760 128M767 128L768 129L767 128M786 128L789 130L786 128M813.667 128.333L814.333 128.667L813.667 128.333M832 128L833 129L832 128M850 128L851 129L850 128M880 128L881 129L880 128M894 128L895 129L894 128M912.667 128.333L913.333 128.667L912.667 128.333M933.667 128.333L934.333 128.667L933.667 128.333M952 128L953 129L952 128M424 130L424 131L428 130L424 130M444 129L445 130L444 129M455 129L456 130L455 129M460 129L461 130L460 129M482 129L482 130L485 130L482 129M495 129L495 130L498 130L495 129M528 129L528 130L531 130L528 129M541 129L541 130L544 130L541 129M564 129L565 130L564 129M590.667 129.333L591.333 129.667L590.667 129.333M595.667 129.333L596.333 129.667L595.667 129.333z"/>
<path style="fill:#e7a42f; stroke:none;" d="M706 129L707 130L706 129z"/>
<path style="fill:#558ab8; stroke:none;" d="M727 129L728 130L727 129M731.667 129.333L732.333 129.667L731.667 129.333M743 129L744 130L743 129M761.667 129.333L762.333 129.667L761.667 129.333M766 129L767 130L766 129M816 129L816 130L819 130L816 129M828 129L828 130L832 130L828 129M851 129L851 130L880 130L851 129M896 129L896 130L899 130L896 129M908 129L908 130L912 130L908 129M935 129L935 130L939 130L935 129M947 129L947 130L951 130L947 129M440 130L440 131L443 131L440 130M456 130L456 131L460 131L456 130M487 130L487 131L492 131L487 130M533 130L533 131L539 131L533 130M565 130L565 131L568 131L565 130M592 130L592 131L595 131L592 130M702.667 130.333L703.333 130.667L702.667 130.333M745.667 130.333L746.333 130.667L745.667 130.333M763 130L763 131L766 131L763 130M820 130L820 131L827 131L820 130M901 130L901 131L906 131L901 130M940 130L940 131L947 131L940 130M509 160L509 161L512 161L509 160M561 160L561 161L564 161L561 160M621 160L621 161L630 161L621 160M825 168L826 168C827.973 163.872 830.514 161.906 835 161C829.654 159.108 826.178 163.102 825 168M506 161L505 163L506 161z"/>
<path style="fill:#0657aa; stroke:none;" d="M518 207L555 207C555 216.188 552.293 230.391 555.603 238.981C558.008 245.22 567.371 245.559 569.486 238.956C571.62 232.292 570 222.96 570 216C570 200.75 572.541 182.989 569.772 168.004C568.537 161.323 559.842 158.602 556.179 165.109C551.741 172.992 556.107 186.149 554 195C544.823 192.287 528.177 192.287 519 195C516.893 186.149 521.258 172.992 516.821 165.109C512.191 156.884 503.099 162.812 502.185 170.001C500.458 183.584 502 198.306 502 212C502 220.307 500.704 229.903 503.059 237.96C505.046 244.762 514.634 246.148 517.397 238.981C520.707 230.391 518 216.188 518 207z"/>
<path style="fill:#558ab8; stroke:none;" d="M513.667 161.333L514.333 161.667L513.667 161.333M558.667 161.333L559.333 161.667L558.667 161.333M565.667 161.333L566.333 161.667L565.667 161.333M606 164L606 165L616 162L606 164z"/>
<path style="fill:#0657aa; stroke:none;" d="M616 161.598C585.456 168.928 575.508 211.593 597.174 233.907C607.584 244.629 625.139 246.05 639 242.66C666.152 236.021 671.62 197.862 658.441 177C650.078 163.763 631.025 157.992 616 161.598z"/>
<path style="fill:#558ab8; stroke:none;" d="M633 161L633 162L637 162L633 161z"/>
<path style="fill:#0657aa; stroke:none;" d="M841 230L841 179C841 173.417 842.613 164.248 835.956 161.758C827.958 158.766 825.077 168.101 825.004 174C824.835 187.662 825 201.337 825 215C825 221.551 823.73 229.663 825.573 235.996C829.09 248.087 858.064 243.004 868 243C872.493 242.998 879.334 243.71 881.777 238.867C884.192 234.079 879.176 230.578 874.999 230.109C863.938 228.866 852.133 230 841 230z"/>
<path style="fill:#558ab8; stroke:none;" d="M836.667 161.333L837.333 161.667L836.667 161.333M515 162L516 163L515 162M556 162L556 164L558 162L556 162M567 162L568 163L567 162M637 162L637 163L641 163L637 162M672 175C669.278 169.547 668.995 165.896 675 163C666.884 160.85 667.711 171.215 672 175z"/>
<path style="fill:#0657aa; stroke:none;" d="M675.005 162.573C670.636 163.85 667.374 168.551 670.743 172.682C675.992 179.117 689.4 170.466 693.972 177.318C696.331 180.852 695 187.935 695 192L695 229C695.002 235.281 695.549 246.107 704.957 243.562C712.336 241.566 711 231.814 711 226L711 193C711 188.642 709.829 182.211 711.603 178.148C715.425 169.394 732.739 180.743 736.381 170.942C738.939 164.058 730.976 162.145 726 162.015C710.931 161.62 689.464 158.346 675.005 162.573z"/>
<path style="fill:#558ab8; stroke:none;" d="M731 162L731 163L734 163L731 162M753 162L753 163L756 163L753 162z"/>
<path style="fill:#0657aa; stroke:none;" d="M765 231L764 207C774.655 207 785.349 207.268 796 206.985C799.919 206.881 805.543 206.117 805.543 201C805.543 196.346 800.718 195.229 797 195.04C786.388 194.502 775.627 195 765 195L764 175C774.117 172.591 785.637 174.001 796 174C799.55 174 805.484 175 807.82 171.566C811.758 165.778 804.707 162.315 800 162.043C787.073 161.296 767.462 158.857 755.093 162.724C748.037 164.93 749 173.111 749 179L749 221C749 226.308 747.629 234.065 750.318 238.867C752.849 243.385 758.536 242.993 763 243L798 243C802.366 242.993 808.614 243.243 810.149 237.957C811.638 232.831 805.985 230.629 802 230.174C791.274 228.95 775.329 227.947 765 231z"/>
<path style="fill:#558ab8; stroke:none;" d="M804.667 162.333L805.333 162.667L804.667 162.333M838 162L839 163L838 162M516 163L517 164L516 163M568 163L569 164L568 163M641 163L641 164L648 166L648 165L641 163M734.667 163.333L735.333 163.667L734.667 163.333M751 163L749 168L750 168L751 163M806.667 163.333L807.333 163.667L806.667 163.333z"/>
<path style="fill:#e7a42f; stroke:none;" d="M826 163L827 164L826 163z"/>
<path style="fill:#558ab8; stroke:none;" d="M839 163L840 164L839 163M503 164L504 165L503 164M517.333 164.667L517.667 165.333L517.333 164.667M555.333 164.667L555.667 165.333L555.333 164.667M569.333 164.667L569.667 165.333L569.333 164.667M808 164L809 165L808 164M840.333 164.667L840.667 165.333L840.333 164.667M604 165L605 166L604 165M736 165L737 166L736 165M809 165L808 173L809 173L809 165M502.333 166.667L502.667 167.333L502.333 166.667M518 166L519 195L520 195L518 166M554 166L553 195L554 195C556.134 187.782 556.932 172.988 554 166M570 166L570 240L571 240L571 189L570 166M602.667 166.333L603.333 166.667L602.667 166.333M648 166L649 167L648 166M737 166L737 171L738 171L737 166M601 167L602 168L601 167M649 167L650 168L649 167M599 168L598 170L600 170L599 168M651 168L652 169L651 168M748 168L748 237L749 237L749 190L748 168M841 168L841 214L843 230L842 186L841 168M652 169L653 170L652 169M597 170L598 171L597 170M653 170L654 171L653 170M596 171L597 172L596 171M654 171L655 172L654 171M595 172L596 173L595 172M655 172L656 173L655 172M736 172L737 173L736 172M594 173L593 176L594 173M624 173L624 174L628 174L624 173M656 173L658 176L656 173M735 173L736 174L735 173M806.667 173.333L807.333 173.667L806.667 173.333M618 174L618 175L621 175L618 174z"/>
<path style="fill:#fbfdfd; stroke:none;" d="M621 174.468C591.797 180.072 598.546 237.63 631 230.61C659.016 224.549 652.489 168.426 621 174.468z"/>
<path style="fill:#558ab8; stroke:none;" d="M630.667 174.333L631.333 174.667L630.667 174.333M734 174L735 175L734 174M765 174L765 175L806 175C795.25 170.489 776.696 174 765 174M616 175L617 176L616 175M634 175L635 176L634 175M673 175L673 176L694 176L673 175M712 175L712 176L732 176L712 175M764 175L765 176L764 175M592.333 176.667L592.667 177.333L592.333 176.667M614 176L615 177L614 176M636 176L637 177L636 176M658 176L659 177L658 176M694 176L694 236L695 236L695 195L694 176M612.667 177.333L613.333 177.667L612.667 177.333M637.667 177.333L638.333 177.667L637.667 177.333M659.333 177.667L659.667 178.333L659.333 177.667M591 178L592 179L591 178M611 178L612 179L611 178M639 178L640 179L639 178M590 179L589 184L590 184L590 179M610 179L611 180L610 179M640 179L642 181L642 179L640 179M660.333 179.667L660.667 180.333L660.333 179.667M609 180L610 181L609 180M608 181L609 182L608 181M642 181L643 182L642 181M661 181L661 184L662 184L661 181M607.333 182.667L607.667 183.333L607.333 182.667M643 182L645 185L643 182M588 184L588 187L589 187L588 184M606.333 184.667L606.667 185.333L606.333 184.667M662.333 184.667L662.667 185.333L662.333 184.667M645.333 185.667L645.667 186.333L645.333 185.667M605.333 186.667L605.667 187.333L605.333 186.667M663 186L663 189L664 189L663 186M587 187L587 190L588 190L587 187M646 187L646 190L647 190L646 187z"/>
<path style="fill:#e7a42f; stroke:none;" d="M166.667 188.333L167.333 188.667L166.667 188.333z"/>
<path style="fill:#5ca828; stroke:none;" d="M439 307C432.959 303.967 426.011 303.263 420 300.088C409.689 294.641 400.249 285.125 392.004 276.985C376.308 261.491 363.21 240.136 341 233.221C315.541 225.294 289.566 256.92 264 245.875C255.253 242.096 248.204 234.406 241 228.436C230.327 219.591 219.036 211.598 208 203.25C195.113 193.502 185.031 185.958 168 188.443C130.995 193.842 101.769 234.63 76.8156 259C68.3955 267.223 57.3616 272.678 48 279.769C38.3808 287.054 28.2717 293.979 20.1705 303C18.3592 305.017 12.8426 310.238 15.0864 313.353C16.8188 315.759 33.3792 312 37 312C60.1159 312 82.8883 315.991 106 316C189.052 316.032 273.3 308.268 356 316.17C376.704 318.148 398.548 319.971 419 315.35C425.62 313.854 435.494 313.518 439 307z"/>
<path style="fill:#e7a42f; stroke:none;" d="M174 188L174 189L181 189L174 188M185 188L186 189L185 188z"/>
<path style="fill:#558ab8; stroke:none;" d="M604.333 188.667L604.667 189.333L604.333 188.667z"/>
<path style="fill:#e7a42f; stroke:none;" d="M161.667 189.333L162.333 189.667L161.667 189.333M187.667 189.333L188.333 189.667L187.667 189.333M158 191L159 192L158 191M191 191L192 192L191 191z"/>
<path style="fill:#558ab8; stroke:none;" d="M603 191L603 194L604 194L603 191M647.333 191.667L647.667 192.333L647.333 191.667M664 191L664 194L665 194L664 191z"/>
<path style="fill:#e7a42f; stroke:none;" d="M130 192L131 193L130 192M156 192L157 193L156 192M193 192L194 193L193 192z"/>
<path style="fill:#558ab8; stroke:none;" d="M586 192L586 196L587 196L586 192z"/>
<path style="fill:#e7a42f; stroke:none;" d="M195 193L196 194L195 193M149 194L150 195L149 194M197 194L198 195L197 194z"/>
<path style="fill:#558ab8; stroke:none;" d="M765 194L765 195L801 195C791.44 190.989 775.387 194 765 194z"/>
<path style="fill:#e7a42f; stroke:none;" d="M199 195L200 196L199 195z"/>
<path style="fill:#558ab8; stroke:none;" d="M801 195L801 196L804 196L801 195M648 196L648 209L649 209L648 196M804 196L806 203L807 203L804 196z"/>
<path style="fill:#e7a42f; stroke:none;" d="M201 197L202 198L201 197z"/>
<path style="fill:#558ab8; stroke:none;" d="M602 197L602 208L603 208L602 197M665 197L665 208L666 208L665 197z"/>
<path style="fill:#e7a42f; stroke:none;" d="M202 198L203 199L202 198M142 199L143 200L142 199M204 200L205 201L204 200M205 201L206 202L205 201M138 202L139 203L138 202M206 202L207 203L206 202M136 203L137 204L136 203z"/>
<path style="fill:#558ab8; stroke:none;" d="M805.333 203.667L805.667 204.333L805.333 203.667z"/>
<path style="fill:#e7a42f; stroke:none;" d="M134 204L135 205L134 204M209 204L210 205L209 204z"/>
<path style="fill:#558ab8; stroke:none;" d="M804 205L805 206L804 205M801 206L801 207L804 207L801 206z"/>
<path style="fill:#e7a42f; stroke:none;" d="M130 207L131 208L130 207M213 207L214 208L213 207z"/>
<path style="fill:#558ab8; stroke:none;" d="M518 207L518 239L519 239L519 208L554 208L554 240L555 240L555 207L518 207M764.667 207.333L765.333 207.667L764.667 207.333z"/>
<path style="fill:#e7a42f; stroke:none;" d="M216 208L217 209L216 208M127 209L128 210L127 209z"/>
<path style="fill:#558ab8; stroke:none;" d="M586 210L586 213L587 213L586 210M603 211L603 214L604 214L603 211z"/>
<path style="fill:#e7a42f; stroke:none;" d="M124 212L125 213L124 212M220 212L221 213L220 212z"/>
<path style="fill:#558ab8; stroke:none;" d="M647.333 212.667L647.667 213.333L647.333 212.667M664 212L664 215L665 215L664 212z"/>
<path style="fill:#e7a42f; stroke:none;" d="M123 213L124 214L123 213z"/>
<path style="fill:#558ab8; stroke:none;" d="M604.333 215.667L604.667 216.333L604.333 215.667z"/>
<path style="fill:#e7a42f; stroke:none;" d="M225 216L226 217L225 216z"/>
<path style="fill:#558ab8; stroke:none;" d="M587.333 216.667L587.667 217.333L587.333 216.667M646.333 216.667L646.667 217.333L646.333 216.667z"/>
<path style="fill:#e7a42f; stroke:none;" d="M119 217L120 218L119 217z"/>
<path style="fill:#558ab8; stroke:none;" d="M605.333 217.667L605.667 218.333L605.333 217.667M663.333 217.667L663.667 218.333L663.333 217.667z"/>
<path style="fill:#e7a42f; stroke:none;" d="M117 218L118 219L117 218z"/>
<path style="fill:#558ab8; stroke:none;" d="M588 218L588 221L589 221L588 218M645.333 218.667L645.667 219.333L645.333 218.667M606 219L607 223L608 223L606 219M662 219L662 222L663 222L662 219z"/>
<path style="fill:#e7a42f; stroke:none;" d="M115 220L116 221L115 220z"/>
<path style="fill:#558ab8; stroke:none;" d="M644 220L643 223L644 220z"/>
<path style="fill:#e7a42f; stroke:none;" d="M231 221L232 222L231 221z"/>
<path style="fill:#558ab8; stroke:none;" d="M589 221L589 224L590 224L589 221z"/>
<path style="fill:#e7a42f; stroke:none;" d="M232 222L233 223L232 222z"/>
<path style="fill:#558ab8; stroke:none;" d="M661.333 222.667L661.667 223.333L661.333 222.667z"/>
<path style="fill:#e7a42f; stroke:none;" d="M112 223L113 224L112 223z"/>
<path style="fill:#558ab8; stroke:none;" d="M608 223L609 224L608 223M642 223L643 224L642 223z"/>
<path style="fill:#e7a42f; stroke:none;" d="M111 224L112 225L111 224z"/>
<path style="fill:#558ab8; stroke:none;" d="M590.333 224.667L590.667 225.333L590.333 224.667M609 224L609 226L611 226L609 224M641 224L640 226L642 226L641 224M660.333 224.667L660.667 225.333L660.333 224.667z"/>
<path style="fill:#e7a42f; stroke:none;" d="M110 225L111 226L110 225M109 226L110 227L109 226z"/>
<path style="fill:#558ab8; stroke:none;" d="M591 226L592 227L591 226M611 226L612 227L611 226M659.333 226.667L659.667 227.333L659.333 226.667z"/>
<path style="fill:#e7a42f; stroke:none;" d="M108 227L109 228L108 227M239 227L240 228L239 227z"/>
<path style="fill:#558ab8; stroke:none;" d="M612 227L613 228L612 227M638.667 227.333L639.333 227.667L638.667 227.333z"/>
<path style="fill:#e7a42f; stroke:none;" d="M107 228L108 229L107 228z"/>
<path style="fill:#558ab8; stroke:none;" d="M592 228L593 229L592 228M613.667 228.333L614.333 228.667L613.667 228.333M636.667 228.333L637.333 228.667L636.667 228.333M658 228L657 231L658 228M593 229L594 230L593 229M615 229L616 230L615 229M634.667 229.333L635.333 229.667L634.667 229.333M594.333 230.667L594.667 231.333L594.333 230.667M617 230L617 231L620 231L617 230M632.667 230.333L633.333 230.667L632.667 230.333M765 230L766 231L765 230M804 230L804 231L808 231L804 230M878.667 230.333L879.333 230.667L878.667 230.333M621 231L621 232L630 232L621 231M656 231L657 232L656 231M808 231L809 232L808 231M880 231L881 232L880 231z"/>
<path style="fill:#e7a42f; stroke:none;" d="M103 232L104 233L103 232M325.667 232.333L326.333 232.667L325.667 232.333M338 232L339 233L338 232z"/>
<path style="fill:#558ab8; stroke:none;" d="M595 232L596 233L595 232M655 232L653 235L655 232M809 232L810 233L809 232M881 232L882 233L881 232z"/>
<path style="fill:#e7a42f; stroke:none;" d="M102 233L103 234L102 233M246 233L247 234L246 233M320 233L321 234L320 233M342.667 233.333L343.333 233.667L342.667 233.333z"/>
<path style="fill:#558ab8; stroke:none;" d="M596 233L597 234L596 233M810.333 233.667L810.667 234.333L810.333 233.667M882.333 233.667L882.667 234.333L882.333 233.667z"/>
<path style="fill:#e7a42f; stroke:none;" d="M101 234L102 235L101 234z"/>
<path style="fill:#558ab8; stroke:none;" d="M597 234L598 235L597 234z"/>
<path style="fill:#e7a42f; stroke:none;" d="M100 235L101 236L100 235M317 235L318 236L317 235M346 235L347 236L346 235z"/>
<path style="fill:#558ab8; stroke:none;" d="M502 235L502 240L503 240L502 235M598 235L599 236L598 235M652 235L653 236L652 235M599 236L600 237L599 236M651 236L652 237L651 236M825 236L825 239L826 239L825 236z"/>
<path style="fill:#e7a42f; stroke:none;" d="M98 237L99 238L98 237M311.667 237.333L312.333 237.667L311.667 237.333M350 237L351 238L350 237z"/>
<path style="fill:#558ab8; stroke:none;" d="M600.667 237.333L601.333 237.667L600.667 237.333M647 240L651 238L647 240M749 237L749 240L750 240L749 237z"/>
<path style="fill:#e7a42f; stroke:none;" d="M97 238L98 239L97 238M252 238L253 239L252 238M308.667 238.333L309.333 238.667L308.667 238.333M352 238L353 239L352 238z"/>
<path style="fill:#558ab8; stroke:none;" d="M602 238L603 239L602 238M695.333 238.667L695.667 239.333L695.333 238.667M710 238L709 242L710 242L710 238M810.333 238.667L810.667 239.333L810.333 238.667M882.333 238.667L882.667 239.333L882.333 238.667z"/>
<path style="fill:#e7a42f; stroke:none;" d="M96 239L97 240L96 239M306 239L307 240L306 239z"/>
<path style="fill:#558ab8; stroke:none;" d="M603.667 239.333L604.333 239.667L603.667 239.333M826 239L829 242L826 239z"/>
<path style="fill:#e7a42f; stroke:none;" d="M95 240L96 241L95 240M303 240L304 241L303 240z"/>
<path style="fill:#558ab8; stroke:none;" d="M503.333 240.667L503.667 241.333L503.333 240.667M517 240L514 244L517 240M555 240L559 244L555 240M569 240L568 243L569 240M606 240L607 241L606 240M645 240L646 241L645 240M750 240L751 241L750 240M809 240L808 242L810 242L809 240M881 240L880 242L882 242L881 240z"/>
<path style="fill:#e7a42f; stroke:none;" d="M94 241L95 242L94 241M300 241L301 242L300 241M356 241L357 242L356 241z"/>
<path style="fill:#558ab8; stroke:none;" d="M607.667 241.333L608.333 241.667L607.667 241.333M642.667 241.333L643.333 241.667L642.667 241.333M696 241L697 242L696 241M751 241L752 242L751 241z"/>
<path style="fill:#e7a42f; stroke:none;" d="M93 242L94 243L93 242M257 242L258 243L257 242M297 242L298 243L297 242z"/>
<path style="fill:#558ab8; stroke:none;" d="M504 242L507 244L504 242M610 242L610 243L613 243L610 242M640.667 242.333L641.333 242.667L640.667 242.333M697 242L698 243L697 242M708 242L709 243L708 242M752 242L752 243L755 243L752 242M806.667 242.333L807.333 242.667L806.667 242.333M829.667 242.333L830.333 242.667L829.667 242.333M877 242L877 243L880 243L877 242z"/>
<path style="fill:#e7a42f; stroke:none;" d="M291 243L291 244L295 244L291 243z"/>
<path style="fill:#558ab8; stroke:none;" d="M566.667 243.333L567.333 243.667L566.667 243.333M613 243L613 244L616 244L613 243M634 243L634 244L639 244L634 243M698 243L699 244L698 243M706.667 243.333L707.333 243.667L706.667 243.333M756 243L756 244L805 244C792.348 238.691 769.788 243 756 243M832 243L832 244L877 244C865.299 239.09 844.742 243 832 243z"/>
<path style="fill:#e7a42f; stroke:none;" d="M91 244L92 245L91 244M261 244L262 245L261 244M287.667 244.333L288.333 244.667L287.667 244.333M360 244L361 245L360 244z"/>
<path style="fill:#558ab8; stroke:none;" d="M507 244L507 245L514 245L507 244M559 244L559 245L566 245L559 244M618 244L618 245L633 245L618 244M699 244L699 245L706 245L699 244z"/>
<path style="fill:#e7a42f; stroke:none;" d="M286 245L287 246L286 245M361 245L362 246L361 245M89 246L90 247L89 246M284 246L285 247L284 246M362 246L363 247L362 246M365 248L366 249L365 248M86 249L87 250L86 249M85 250L86 251L85 250M367 250L368 251L367 250M84 251L85 252L84 251M369 252L370 253L369 252M80 255L81 256L80 255M78.3333 256.667L78.6667 257.333L78.3333 256.667M373 256L374 257L373 256M77 258L78 259L77 258M375 258L376 259L375 258M76 259L77 260L76 259M75 260L76 261L75 260M52 261L53 262L52 261M74 261L75 262L74 261M50 262L51 263L50 262M72 262L73 263L72 262M379 263L380 264L379 263M70 264L71 265L70 264M380 264L381 265L380 264M69 265L70 266L69 265M400 265L401 266L400 265M67 266L68 267L67 266M65 267L66 268L65 267M383 267L384 268L383 267M62 269L63 270L62 269M61 270L62 271L61 270M387 272L388 273L387 272M389 274L390 275L389 274M52 276L53 277L52 276M391 276L392 277L391 276M393 278L394 279L393 278M48 279L49 280L48 279M47 280L48 281L47 280M395 280L396 281L395 280M396 281L397 282L396 281M44 282L45 283L44 282M398 282L399 283L398 282M399 283L400 284L399 283M40 285L41 286L40 285M39 286L40 287L39 286M402 286L403 287L402 286M36 288L37 289L36 288M35 289L36 290L35 289M34 290L35 291L34 290M32 291L33 292L32 291M407 291L408 292L407 291M31 292L32 293L31 292M26 296L27 297L26 296M415.667 297.333L416.333 297.667L415.667 297.333M24 298L25 299L24 298M417 298L418 299L417 298M418 299L419 300L418 299M422 301L423 302L422 301M424 301L425 302L424 301M20 302L21 303L20 302M426 302L427 303L426 302M428 303L429 304L428 303M18 304L19 305L18 304M17 306L18 307L17 306M16 307L17 308L16 307M15 308L16 309L15 308M14 309L15 310L14 309M438 309L439 310L438 309M437 310L438 311L437 310M13.3333 311.667L13.6667 312.333L13.3333 311.667M434 311L435 312L434 311M26 312L26 313L48 313L26 312M55 312L55 313L69 313L55 312M290 312L290 313L293 313L290 312M295 312L295 313L318 313L295 312M431 312L432 313L431 312M20 313L21 314L20 313M71 313L71 314L74 314L71 313M265 313L265 314L272 314L265 313M280 313L280 314L288 314L280 313M320 313L320 314L330 314L320 313M427 313L428 314L427 313M14 314L15 315L14 314M18 314L19 315L18 314M77 314L77 315L86 315L77 314M228 314L228 315L264 315C254.44 310.989 238.387 314 228 314M332 314L332 315L338 315L332 314M422 314L422 315L425 315L422 314M88 315L88 316L97 316L88 315M192.667 315.333L193.333 315.667L192.667 315.333M199 315L199 316L213 316L199 315M222.667 315.333L223.333 315.667L222.667 315.333M341 315L341 316L347 316L341 315M418 315L419 316L418 315M100 316L100 317L122 317L100 316M163 316L163 317L189 317L163 316M350 316L350 317L359 317L350 316M413 316L413 317L416 317L413 316M126 317L126 318L160 318L126 317M360 317L360 318L378 318L360 317M408.667 317.333L409.333 317.667L408.667 317.333M381 318L381 319L408 319L381 318z"/>
</svg>
